<?xml version="1.0" standalone="no"?>
<!DOCTYPE svg PUBLIC "-//W3C//DTD SVG 20010904//EN"
 "http://www.w3.org/TR/2001/REC-SVG-20010904/DTD/svg10.dtd">
<svg version="1.0" xmlns="http://www.w3.org/2000/svg"
 width="64.000000pt" height="64.000000pt" viewBox="0 0 64.000000 64.000000"
 preserveAspectRatio="xMidYMid meet">

<g transform="translate(0.000000,64.000000) scale(0.100000,-0.100000)"
fill="#000000" stroke="none">
<path d="M26 558 c-20 -29 -21 -127 -2 -154 13 -17 31 -19 204 -24 l190 -5
-146 -85 c-80 -47 -150 -93 -156 -103 -9 -13 -5 -29 18 -73 34 -64 56 -80 89
-63 105 54 361 208 368 222 8 13 4 29 -15 62 -23 43 -24 45 -5 45 10 0 28 9
39 20 25 25 28 124 4 158 -15 22 -17 22 -294 22 -277 0 -279 0 -294 -22z m94
-38 c0 -6 -8 -5 -19 2 -26 16 -51 -5 -51 -42 0 -37 25 -58 51 -42 26 16 34 15
19 -3 -18 -22 -57 -18 -74 7 -22 32 -20 55 9 84 20 20 28 23 45 14 11 -6 20
-15 20 -20z m104 9 c63 -49 -4 -143 -69 -95 -27 19 -24 74 4 98 29 23 32 23
65 -3z m223 -26 l28 -48 6 45 c6 43 6 42 7 -17 1 -35 -1 -63 -6 -63 -4 0 -18
21 -32 47 l-25 48 -6 -50 c-6 -49 -6 -49 -7 18 -1 37 0 67 3 67 2 0 17 -21 32
-47z m151 18 c3 -9 -1 -9 -17 1 -16 9 -26 10 -39 2 -23 -14 -28 -67 -8 -83 20
-17 48 -7 40 14 -4 10 0 15 15 15 25 0 26 -7 4 -32 -22 -25 -59 -23 -77 4 -22
32 -20 55 8 83 19 19 30 23 47 16 13 -4 25 -13 27 -20z m-306 -6 c6 -14 14
-25 18 -25 4 0 12 11 18 25 19 42 32 28 32 -36 0 -37 -4 -58 -10 -54 -5 3 -10
23 -10 43 0 34 -1 35 -15 16 -14 -19 -15 -18 -34 6 l-20 25 -4 -50 c-3 -48 -3
-48 -5 13 -2 65 10 81 30 37z m95 -67 c-2 -18 -4 -4 -4 32 0 36 2 50 4 33 2
-18 2 -48 0 -65z m156 -109 c16 -28 26 -53 23 -56 -3 -3 -26 7 -51 21 -50 30
-54 26 -24 -23 11 -18 18 -35 15 -38 -6 -6 -66 88 -66 105 0 16 0 16 55 -14
l47 -27 -21 42 c-30 59 -12 51 22 -10z m-104 -45 c26 -33 27 -58 1 -84 -41
-41 -100 -9 -100 55 0 57 62 76 99 29z m-135 -45 c13 -7 30 -24 37 -40 27 -66
-56 -109 -100 -53 -27 34 -26 50 4 79 28 29 26 28 59 14z m-129 -63 c-25 -18
-13 -50 15 -41 25 8 50 -10 50 -36 0 -22 -31 -41 -50 -29 -10 6 -7 9 11 12 37
5 30 32 -10 38 -41 6 -61 31 -42 54 8 9 21 16 29 16 13 0 12 -2 -3 -14z"/>
<path d="M162 518 c-17 -17 -15 -54 4 -72 18 -19 20 -19 45 -6 36 20 19 90
-21 90 -9 0 -21 -5 -28 -12z"/>
<path d="M366 294 c-34 -33 -6 -88 43 -82 37 4 43 59 9 82 -28 20 -33 20 -52
0z"/>
<path d="M252 228 c-27 -27 0 -88 39 -88 39 0 52 55 21 83 -22 20 -43 22 -60
5z"/>
</g>
</svg>
